# xmcd CD database file
#
# Track frame offsets:
#	150
#	16785
#	34759
#	50038
#	72084
#	91546
#	109881
#	127941
#	143007
#	158253
#	173137
#	188114
#	205638
#	223573
#	241601
#	259415
#	276868
#	294327
#	310210
#	326875
#
# Disc length: 4560 seconds
#
# Revision: 0
# Processed by: cddbd v1.4PL0 Copyright (c) Steve Scherf et al.
# Submitted via: CDex 1.50Beta7
#
DISCID=1011ce14
DTITLE=Various Artist - BODY and SOUL CD1
DYEAR=2001
DGENRE=Blues
TTITLE0=GINUWINE - JUST BECAUSE (Album Version)
TTITLE1=MARY J. BLIGE - FAMILY AFFAIR (Edit)
TTITLE2=MIS-TEEQ - ONE NIGHT STAND (Stargate Radio Edit)
TTITLE3=JENNIFER LOPEZ - I'M REAL (Album Version)
TTITLE4=BLAQUE - CAN'T GET IT BACK (Album Version)
TTITLE5=NEXT - WIFEY (Clean Version - Radio Mix)
TTITLE6=OUTKAST - SO FRESH, SO CLEAN (Clean Version - Radio Mix)
TTITLE7=PRECIOUS - IT'S GONNA BE MY WAY
TTITLE8=LUCY PEARL - DANCE TONIGHT (Linslee Campbell Mix)
TTITLE9=JAMIROQUAI - YOU GIVE ME SOMETHING (Commercial Edit)
TTITLE10=ANASTACIA - PAID MY DUES (Album Version)
TTITLE11=NIVEA - DON'T MESS WITH THE RADIO
TTITLE12=TONI BRAXTON - HE WASN'T MAN ENOUGH (Radio Edit)
TTITLE13=KANDI - DON'T THINK I'M NOT (LP Version)
TTITLE14=RUFF ENDZ - NO MORE (Radio Edit)
TTITLE15=STEPHEN GALLOWAY - DARKBELL (Radio Cut)
TTITLE16=CRAIG DAVID - 7 DAYS (Radio Edit)
TTITLE17=MONTELL JORDON - GET IT ON TONITE (Mainstream Radio Edit)
TTITLE18=MARY MARY FEATURING B.B. JAY - I SINGS (Radio Edit Without Rap)
TTITLE19=BARRY WHITE - YOU'RE THE FIRST, THE LAST, MY EVERYTHING (Album Version)
EXTD=YEAR: 2001
EXTT0=
EXTT1=
EXTT2=
EXTT3=
EXTT4=
EXTT5=
EXTT6=
EXTT7=
EXTT8=
EXTT9=
EXTT10=
EXTT11=
EXTT12=
EXTT13=
EXTT14=
EXTT15=
EXTT16=
EXTT17=
EXTT18=
EXTT19=
PLAYORDER=
